<mxfile host="65bd71144e">
    <diagram id="11CeKzrpDRcoLBXRQLgJ" name="Page-1">
        <mxGraphModel dx="723" dy="1193" grid="1" gridSize="10" guides="1" tooltips="1" connect="1" arrows="1" fold="1" page="1" pageScale="1" pageWidth="850" pageHeight="1100" math="0" shadow="0">
            <root>
                <mxCell id="0"/>
                <mxCell id="1" parent="0"/>
                <mxCell id="69" value="Product" style="shape=table;startSize=30;container=1;collapsible=0;childLayout=tableLayout;fixedRows=1;rowLines=0;fontStyle=1;align=center;pointerEvents=1;" vertex="1" parent="1">
                    <mxGeometry x="90" y="330" width="180" height="180" as="geometry"/>
                </mxCell>
                <mxCell id="70" value="" style="shape=partialRectangle;html=1;whiteSpace=wrap;collapsible=0;dropTarget=0;pointerEvents=1;fillColor=none;top=0;left=0;bottom=1;right=0;points=[[0,0.5],[1,0.5]];portConstraint=eastwest;" vertex="1" parent="69">
                    <mxGeometry y="30" width="180" height="30" as="geometry"/>
                </mxCell>
                <mxCell id="71" value="pk" style="shape=partialRectangle;html=1;whiteSpace=wrap;connectable=0;fillColor=none;top=0;left=0;bottom=0;right=0;overflow=hidden;pointerEvents=1;" vertex="1" parent="70">
                    <mxGeometry width="40" height="30" as="geometry">
                        <mxRectangle width="40" height="30" as="alternateBounds"/>
                    </mxGeometry>
                </mxCell>
                <mxCell id="72" value="id" style="shape=partialRectangle;html=1;whiteSpace=wrap;connectable=0;fillColor=none;top=0;left=0;bottom=0;right=0;align=left;spacingLeft=6;overflow=hidden;pointerEvents=1;" vertex="1" parent="70">
                    <mxGeometry x="40" width="140" height="30" as="geometry">
                        <mxRectangle width="140" height="30" as="alternateBounds"/>
                    </mxGeometry>
                </mxCell>
                <mxCell id="73" value="" style="shape=partialRectangle;html=1;whiteSpace=wrap;collapsible=0;dropTarget=0;pointerEvents=1;fillColor=none;top=0;left=0;bottom=0;right=0;points=[[0,0.5],[1,0.5]];portConstraint=eastwest;" vertex="1" parent="69">
                    <mxGeometry y="60" width="180" height="30" as="geometry"/>
                </mxCell>
                <mxCell id="74" value="" style="shape=partialRectangle;html=1;whiteSpace=wrap;connectable=0;fillColor=none;top=0;left=0;bottom=0;right=0;overflow=hidden;pointerEvents=1;" vertex="1" parent="73">
                    <mxGeometry width="40" height="30" as="geometry">
                        <mxRectangle width="40" height="30" as="alternateBounds"/>
                    </mxGeometry>
                </mxCell>
                <mxCell id="75" value="name: string" style="shape=partialRectangle;html=1;whiteSpace=wrap;connectable=0;fillColor=none;top=0;left=0;bottom=0;right=0;align=left;spacingLeft=6;overflow=hidden;pointerEvents=1;" vertex="1" parent="73">
                    <mxGeometry x="40" width="140" height="30" as="geometry">
                        <mxRectangle width="140" height="30" as="alternateBounds"/>
                    </mxGeometry>
                </mxCell>
                <mxCell id="124" style="shape=partialRectangle;html=1;whiteSpace=wrap;collapsible=0;dropTarget=0;pointerEvents=1;fillColor=none;top=0;left=0;bottom=0;right=0;points=[[0,0.5],[1,0.5]];portConstraint=eastwest;" vertex="1" parent="69">
                    <mxGeometry y="90" width="180" height="30" as="geometry"/>
                </mxCell>
                <mxCell id="125" style="shape=partialRectangle;html=1;whiteSpace=wrap;connectable=0;fillColor=none;top=0;left=0;bottom=0;right=0;overflow=hidden;pointerEvents=1;" vertex="1" parent="124">
                    <mxGeometry width="40" height="30" as="geometry">
                        <mxRectangle width="40" height="30" as="alternateBounds"/>
                    </mxGeometry>
                </mxCell>
                <mxCell id="126" value="Price: integer" style="shape=partialRectangle;html=1;whiteSpace=wrap;connectable=0;fillColor=none;top=0;left=0;bottom=0;right=0;align=left;spacingLeft=6;overflow=hidden;pointerEvents=1;" vertex="1" parent="124">
                    <mxGeometry x="40" width="140" height="30" as="geometry">
                        <mxRectangle width="140" height="30" as="alternateBounds"/>
                    </mxGeometry>
                </mxCell>
                <mxCell id="76" value="" style="shape=partialRectangle;html=1;whiteSpace=wrap;collapsible=0;dropTarget=0;pointerEvents=1;fillColor=none;top=0;left=0;bottom=0;right=0;points=[[0,0.5],[1,0.5]];portConstraint=eastwest;" vertex="1" parent="69">
                    <mxGeometry y="120" width="180" height="30" as="geometry"/>
                </mxCell>
                <mxCell id="77" value="" style="shape=partialRectangle;html=1;whiteSpace=wrap;connectable=0;fillColor=none;top=0;left=0;bottom=0;right=0;overflow=hidden;pointerEvents=1;" vertex="1" parent="76">
                    <mxGeometry width="40" height="30" as="geometry">
                        <mxRectangle width="40" height="30" as="alternateBounds"/>
                    </mxGeometry>
                </mxCell>
                <mxCell id="78" value="" style="shape=partialRectangle;html=1;whiteSpace=wrap;connectable=0;fillColor=none;top=0;left=0;bottom=0;right=0;align=left;spacingLeft=6;overflow=hidden;pointerEvents=1;" vertex="1" parent="76">
                    <mxGeometry x="40" width="140" height="30" as="geometry">
                        <mxRectangle width="140" height="30" as="alternateBounds"/>
                    </mxGeometry>
                </mxCell>
                <mxCell id="89" value="Reviews" style="shape=table;startSize=30;container=1;collapsible=0;childLayout=tableLayout;fixedRows=1;rowLines=0;fontStyle=1;align=center;pointerEvents=1;" vertex="1" parent="1">
                    <mxGeometry x="510" y="320" width="180" height="180" as="geometry"/>
                </mxCell>
                <mxCell id="90" value="" style="shape=partialRectangle;html=1;whiteSpace=wrap;collapsible=0;dropTarget=0;pointerEvents=1;fillColor=none;top=0;left=0;bottom=1;right=0;points=[[0,0.5],[1,0.5]];portConstraint=eastwest;" vertex="1" parent="89">
                    <mxGeometry y="30" width="180" height="30" as="geometry"/>
                </mxCell>
                <mxCell id="91" value="pk" style="shape=partialRectangle;html=1;whiteSpace=wrap;connectable=0;fillColor=none;top=0;left=0;bottom=0;right=0;overflow=hidden;pointerEvents=1;" vertex="1" parent="90">
                    <mxGeometry width="40" height="30" as="geometry">
                        <mxRectangle width="40" height="30" as="alternateBounds"/>
                    </mxGeometry>
                </mxCell>
                <mxCell id="92" value="id" style="shape=partialRectangle;html=1;whiteSpace=wrap;connectable=0;fillColor=none;top=0;left=0;bottom=0;right=0;align=left;spacingLeft=6;overflow=hidden;pointerEvents=1;" vertex="1" parent="90">
                    <mxGeometry x="40" width="140" height="30" as="geometry">
                        <mxRectangle width="140" height="30" as="alternateBounds"/>
                    </mxGeometry>
                </mxCell>
                <mxCell id="93" value="" style="shape=partialRectangle;html=1;whiteSpace=wrap;collapsible=0;dropTarget=0;pointerEvents=1;fillColor=none;top=0;left=0;bottom=0;right=0;points=[[0,0.5],[1,0.5]];portConstraint=eastwest;" vertex="1" parent="89">
                    <mxGeometry y="60" width="180" height="30" as="geometry"/>
                </mxCell>
                <mxCell id="94" value="" style="shape=partialRectangle;html=1;whiteSpace=wrap;connectable=0;fillColor=none;top=0;left=0;bottom=0;right=0;overflow=hidden;pointerEvents=1;" vertex="1" parent="93">
                    <mxGeometry width="40" height="30" as="geometry">
                        <mxRectangle width="40" height="30" as="alternateBounds"/>
                    </mxGeometry>
                </mxCell>
                <mxCell id="95" value="name: string" style="shape=partialRectangle;html=1;whiteSpace=wrap;connectable=0;fillColor=none;top=0;left=0;bottom=0;right=0;align=left;spacingLeft=6;overflow=hidden;pointerEvents=1;" vertex="1" parent="93">
                    <mxGeometry x="40" width="140" height="30" as="geometry">
                        <mxRectangle width="140" height="30" as="alternateBounds"/>
                    </mxGeometry>
                </mxCell>
                <mxCell id="96" value="" style="shape=partialRectangle;html=1;whiteSpace=wrap;collapsible=0;dropTarget=0;pointerEvents=1;fillColor=none;top=0;left=0;bottom=0;right=0;points=[[0,0.5],[1,0.5]];portConstraint=eastwest;" vertex="1" parent="89">
                    <mxGeometry y="90" width="180" height="30" as="geometry"/>
                </mxCell>
                <mxCell id="97" value="" style="shape=partialRectangle;html=1;whiteSpace=wrap;connectable=0;fillColor=none;top=0;left=0;bottom=0;right=0;overflow=hidden;pointerEvents=1;" vertex="1" parent="96">
                    <mxGeometry width="40" height="30" as="geometry">
                        <mxRectangle width="40" height="30" as="alternateBounds"/>
                    </mxGeometry>
                </mxCell>
                <mxCell id="98" value="price: integer" style="shape=partialRectangle;html=1;whiteSpace=wrap;connectable=0;fillColor=none;top=0;left=0;bottom=0;right=0;align=left;spacingLeft=6;overflow=hidden;pointerEvents=1;" vertex="1" parent="96">
                    <mxGeometry x="40" width="140" height="30" as="geometry">
                        <mxRectangle width="140" height="30" as="alternateBounds"/>
                    </mxGeometry>
                </mxCell>
                <mxCell id="105" value="user" style="shape=table;startSize=30;container=1;collapsible=0;childLayout=tableLayout;fixedRows=1;rowLines=0;fontStyle=1;align=center;pointerEvents=1;" vertex="1" parent="1">
                    <mxGeometry x="320" y="40" width="180" height="170" as="geometry"/>
                </mxCell>
                <mxCell id="106" value="" style="shape=partialRectangle;html=1;whiteSpace=wrap;collapsible=0;dropTarget=0;pointerEvents=1;fillColor=none;top=0;left=0;bottom=1;right=0;points=[[0,0.5],[1,0.5]];portConstraint=eastwest;" vertex="1" parent="105">
                    <mxGeometry y="30" width="180" height="30" as="geometry"/>
                </mxCell>
                <mxCell id="107" value="pk" style="shape=partialRectangle;html=1;whiteSpace=wrap;connectable=0;fillColor=none;top=0;left=0;bottom=0;right=0;overflow=hidden;pointerEvents=1;" vertex="1" parent="106">
                    <mxGeometry width="40" height="30" as="geometry">
                        <mxRectangle width="40" height="30" as="alternateBounds"/>
                    </mxGeometry>
                </mxCell>
                <mxCell id="108" value="id" style="shape=partialRectangle;html=1;whiteSpace=wrap;connectable=0;fillColor=none;top=0;left=0;bottom=0;right=0;align=left;spacingLeft=6;overflow=hidden;pointerEvents=1;" vertex="1" parent="106">
                    <mxGeometry x="40" width="140" height="30" as="geometry">
                        <mxRectangle width="140" height="30" as="alternateBounds"/>
                    </mxGeometry>
                </mxCell>
                <mxCell id="109" value="" style="shape=partialRectangle;html=1;whiteSpace=wrap;collapsible=0;dropTarget=0;pointerEvents=1;fillColor=none;top=0;left=0;bottom=0;right=0;points=[[0,0.5],[1,0.5]];portConstraint=eastwest;" vertex="1" parent="105">
                    <mxGeometry y="60" width="180" height="20" as="geometry"/>
                </mxCell>
                <mxCell id="110" value="" style="shape=partialRectangle;html=1;whiteSpace=wrap;connectable=0;fillColor=none;top=0;left=0;bottom=0;right=0;overflow=hidden;pointerEvents=1;" vertex="1" parent="109">
                    <mxGeometry width="40" height="20" as="geometry">
                        <mxRectangle width="40" height="20" as="alternateBounds"/>
                    </mxGeometry>
                </mxCell>
                <mxCell id="111" value="name: string" style="shape=partialRectangle;html=1;whiteSpace=wrap;connectable=0;fillColor=none;top=0;left=0;bottom=0;right=0;align=left;spacingLeft=6;overflow=hidden;pointerEvents=1;" vertex="1" parent="109">
                    <mxGeometry x="40" width="140" height="20" as="geometry">
                        <mxRectangle width="140" height="20" as="alternateBounds"/>
                    </mxGeometry>
                </mxCell>
                <mxCell id="112" value="" style="shape=partialRectangle;html=1;whiteSpace=wrap;collapsible=0;dropTarget=0;pointerEvents=1;fillColor=none;top=0;left=0;bottom=0;right=0;points=[[0,0.5],[1,0.5]];portConstraint=eastwest;" vertex="1" parent="105">
                    <mxGeometry y="80" width="180" height="30" as="geometry"/>
                </mxCell>
                <mxCell id="113" value="" style="shape=partialRectangle;html=1;whiteSpace=wrap;connectable=0;fillColor=none;top=0;left=0;bottom=0;right=0;overflow=hidden;pointerEvents=1;" vertex="1" parent="112">
                    <mxGeometry width="40" height="30" as="geometry">
                        <mxRectangle width="40" height="30" as="alternateBounds"/>
                    </mxGeometry>
                </mxCell>
                <mxCell id="114" value="email: string" style="shape=partialRectangle;html=1;whiteSpace=wrap;connectable=0;fillColor=none;top=0;left=0;bottom=0;right=0;align=left;spacingLeft=6;overflow=hidden;pointerEvents=1;" vertex="1" parent="112">
                    <mxGeometry x="40" width="140" height="30" as="geometry">
                        <mxRectangle width="140" height="30" as="alternateBounds"/>
                    </mxGeometry>
                </mxCell>
                <mxCell id="121" style="shape=partialRectangle;html=1;whiteSpace=wrap;collapsible=0;dropTarget=0;pointerEvents=1;fillColor=none;top=0;left=0;bottom=0;right=0;points=[[0,0.5],[1,0.5]];portConstraint=eastwest;" vertex="1" parent="105">
                    <mxGeometry y="110" width="180" height="30" as="geometry"/>
                </mxCell>
                <mxCell id="122" style="shape=partialRectangle;html=1;whiteSpace=wrap;connectable=0;fillColor=none;top=0;left=0;bottom=0;right=0;overflow=hidden;pointerEvents=1;" vertex="1" parent="121">
                    <mxGeometry width="40" height="30" as="geometry">
                        <mxRectangle width="40" height="30" as="alternateBounds"/>
                    </mxGeometry>
                </mxCell>
                <mxCell id="123" value="favorites: string" style="shape=partialRectangle;html=1;whiteSpace=wrap;connectable=0;fillColor=none;top=0;left=0;bottom=0;right=0;align=left;spacingLeft=6;overflow=hidden;pointerEvents=1;" vertex="1" parent="121">
                    <mxGeometry x="40" width="140" height="30" as="geometry">
                        <mxRectangle width="140" height="30" as="alternateBounds"/>
                    </mxGeometry>
                </mxCell>
                <mxCell id="127" value="date: integer" style="text;html=1;align=center;verticalAlign=middle;resizable=0;points=[];autosize=1;strokeColor=none;fillColor=none;" vertex="1" parent="1">
                    <mxGeometry x="550" y="440" width="80" height="20" as="geometry"/>
                </mxCell>
                <mxCell id="155" value="" style="shape=stencil(fVfRbtswDPwavxKiKFHSc9f9R4GmS7AsKdJsa/9+DAx5oezcm2PzHJF3PNKTPH3sX953Uwwf18v55+7v4fW6n+TbFOPhtN9dDle7muR5kqe382X343L+fXqdf7+/3CJvV7/Of25v+JxxHAKFcIPF8DXfWm58nwHHw+kO0CpJcfFMuYF4IfbxmQo/jq+VanbxdiOB+ELRn58DcQQA6e9bAJEqyLja+6oHWArlMaAoVfGASpwBIFFoDmAkRJB0YVJfpBgpgKS1UWYPsDIAGrRQ8LQZbxXwrInUJx0LaQWASNkTF1uXyjYgkPojSehl2ATkOjItkRIoay4k0QOEmgCACcETJ5kS4CEnikMOSg2ILwsFz7RYAwIeMo/iS4t+twFWRC+NxNT0MSC1foAFIFQAD6mOFpAyZcBDspr4pNPCzDbAeBiSNi0BeadE1TNtZUDythSbV2uOJKCsKVLzVTIqK5C3AYaOM3UJ4oGJ1QO0e+c2YDGVBWBaAvKW1h93gGJvNW0mryVlKG9ZubcKlLf1V/NmrBnK2wDBV0m1+8g2YDUf1LICZTVTUa8lc9sG5C1MySdtfp4QD6sJVJb/3ASYkw42U6QPgG2ACcF3nM2kAogzc2cvjYLng42PwWZKgQ0UV0OxVNhANgKjZ9omN2ogG7LJ51AZNpCN8eiPZMuEAuJsURiXGbz9sDmp15LtNxnwwNyrvgBaP+Q2IIz7Wwtwm1kN0YbHw2qG2gaI2keJfTO0BLvHnNv3QtMuxe3m6add4gtclVYD1+IbiOdx77ENGW1Wq3F7t4I/AIRxwR0BdvF/wX87HI/z98H98/GDwG7NHxPy/A8=);fillColor=none;sketch=1;" vertex="1" parent="1">
                    <mxGeometry x="435.83526173909524" y="402.5" width="34.16666666666667" height="35" as="geometry"/>
                </mxCell>
                <mxCell id="156" value="" style="shape=stencil(fZTbbsIwDIafpre/4pwcXzP2HkiUtRqjqLDT2y9Vx4Zb4bs0/T/H5yZsLt3u3DbeXa7j8Np+9vtr14Snxvv+1LVjf62nJmybsDkMY/syDu+n/fx93k3K6fQ2fEwWvmbOwbkJ8u57cfE8y4/9SclzUnKCD4/lHkHLPaavR/IMykoeTetUfdXmM5xhnjIyK73AZ8P7CF5EGxANh4JH1tkkBhlAdJCgE2RnKK3q5Qt8NABBIAWEBBKjBrwscfRmDBxvSf8DCigZQLkl8QakYMZQCFm/kBiFDSCtGsNDjEoXhogGGMnIUhGIfoEJbLwghKhj4GROmnhEXWm2Ky0BWae15i0WA4goOoZit4bU8SoaKCgWwHB6oMXupQqwrkN1MlpBF+QFkCFkAIKk56HeOKOXyK1G7u7qF6mH/wV76I/HeT/f/18u5Ho1L/Ow/QE=);fillColor=none;sketch=1;" vertex="1" parent="1">
                    <mxGeometry x="431.6652617390952" y="437.4966666666668" width="42.5" height="22.5" as="geometry"/>
                </mxCell>
                <mxCell id="157" value="" style="shape=stencil(lZjbbtswDIafxreEJIoSdd1171Gg6WIsS4o029q3Hw0vbWILTP47x/YX83zQwA9v26fXzZDC2+l4+Ln5Oz6ftgN/G1Ia99vNcTzZ1cCPAz+8HI6bH8fD7/3z/Pv1aXpzuvp1+DP9w/vMxRAohAlL4WO+9Xnj+wzsxv0tgBsEJIoRAjKFBALKEFCIMaUrNUyHRqVAQIyUKkYkqhkjzLKgVEIMSlVIQKkqVczfUWHNzR/ON1qhzNdBG0icEGmJtFwD5j8nCLVRakugOc5QoRqvgUTFyTy1PMvXAJM4zqt6fvwJZMriALJKbQsPR+kaV2YtlJxE6gCVgqN0B1C33HSAdrbbnQBbdEFfMEAhHThS9Ry3BiwcnWjtAEzq5EMHsBrrhcYaEFJMh0IN00EpYF+wHIQ8nQMlJ0U7QDxn+b1AIoZiKTMxpkMmxnQQt8F3gOJ2rg5QUSspZUwHK/dQXRJLUcgPYtVbIYApQgkk5jgoRUWoQKEhlnGYSAp6WprbqNdAsQSCikBJoONK9pviGrDZAAOsr0KOqwEUqSawP9QMlvtawOptwwQmkprSUIp+zTf3AkwFiiXN1CAraQGHE62UoWhVMytkpRYoQiK1SAKJNI2+mEgZdFwTsCna+I41xWYdCPK0AVipbOquQR3AxlBMpEYCNUUDsBHuYo/qEqUul6BbhPBy5bghlI0K//e2C6A6avNqbTLAa1rrzV0X849dfJ2nvIy73Xwcc/l8ef5it+azG378Bw==);fillColor=none;sketch=1;" vertex="1" parent="1">
                    <mxGeometry x="430.0019284057617" y="398.85" width="2.916666666666667" height="71.14583333333334" as="geometry"/>
                </mxCell>
                <mxCell id="158" value="" style="shape=stencil(lVfLbhsxDPwaXwlSEvU4p+l/BIhTG3XtwHH6+PvSdbRdcb0D5LZeD1fUcDiUNvHhbff0ut0EfrucT9+3v/bPl90mftmEsD/utuf9xZ428XETH15O5+238+n9+Hz7/fp0RV6ffpx+Xr/w+xYnzMR8DQv85/YqkMq/F19vAYf9cRbQKkUZ8JECA7xS1s/gA0l0+WSUD5NWh49xHV8LNXV4LgCvnY6OFyro+5FEHT6C/Vam2ga8vcjr+FKpiMMjfkqmEhw+KsArsc8noHwipezwAvgsQs3n87HgfTx3uczwgM9cKXh+ID6TfCafnLw+MT/Z5Oi/j+qVeak3Tut4NT2wwyvIR7PHW8MhfKIcHL6hfILXW6QK+FemNu43UQH6TM37lVKtAJ+93gqsV7L9jnqu1ED+yeo79otwZ+B+APd6TgFGGVBcLJRHhxOFkojaHXAKKL1J7wdYSctYY2titAJ7E7qqArBkJHoV2VwANhEyZTcGKimg1WSTR1qjwE1bxnVcISYKwNmtscRNPtMWKJw0SiOtsVEBKUklHlMydaFNS+4kTgFKAaWkfnqnCjctyatVhQLoTxNzHfvHHESBlsT8amwgszS4Ant5m8eiPZhjjBmZ5ysagd4hbQY1ZPG9RhPeigAsSSmN+ZdGETBk/I34OvXr/e70vVYzMchnat0JX7vjrODjyKedwZBlS++SCT+d8VbwddRoi3AkS9fXDI+OULLIP0E9iD8RNYVHzMVEa7k7xwreTUzDo5HJi/2avQN+eLHfSgLqy/3fGR4NqMUNojXY8ffwFfLp8LNLy0eAPfy/4bzsD4fbBWn+v78R2avbbSo+/gU=);fillColor=none;sketch=1;" vertex="1" parent="1">
                    <mxGeometry x="204.99859507242869" y="170.0025" width="115" height="120.52083333333334" as="geometry"/>
                </mxCell>
                <mxCell id="159" value="" style="shape=stencil(lZfJctswDIafRlcMF5Agzmn6HpmJU3vq2hnH3d6+UFWyAi1B9k2m/k8miJVDfPrYv7zvhuA+rpfz193Pw+t1P8RPQwiH0353OVzlaYjPQ3x6O192Xy7n76fX6ff7y6gcn76df4xf+DVxDpwboeB+TwsBPP5d+DzJj4fTTO4haXnjF+UBQlLyxq/ICyt5BJfX5fJWy9Hce4SsN5OAkiXnqORkyhFQb8Y78MbmUzWt6QMwWfoctD6DL+v69rbpGYgtPaEOhAho+Iog6e/LivPr+gKojzM6yIaeIZDWI4Rg6Uv3faory5HsIHbRIxuyQl9e6x2hBKAREQKwdjEmQAvwELQPkACNGFoA2MyYWyC5es73Ah7KY4Cc0mMAQjYCewFIUB4DqCbrvQA/CGQPbCSPAElnc0YgIxsEKLrwZgJvAQGczs/MwEb+CBB1tJKsWAkUaro0QGywAdZGUys6y0CEoI2msgWgNrpIllsZF4G00UUcZwEIThtdIiQr47AeYgOS2RcE+FcWG5DrJteArmsWOSUr42QDupCxA7ISqJWtBgQbyLUVNADN5rMA5Fqe14CgjWYCtgBJF+0HLjWl1gDWscQM2QIYvI5W7zamI18r4+wvggXEWuhmVnvDaunquTumZALSlLuxZMPVMfZ9XYIpGtEXc1/JCpmDD/re1QXNhMBcc35WBazRTXpg6SoZmZOkdCjSfiA0a2W6mX6odYDlaWypfHsLkGPVRucEbDQIqe5eH6v8Z7QGvlzddGdXlFLajaAbfXesjLoKbHT2wn01Fs8EAxijX/tBxploeHosEp0NGwOTu7lR3RDy8P869nY4Hqfb3Px9f32TpenqF5//AA==);fillColor=none;sketch=1;" vertex="1" parent="1">
                    <mxGeometry x="189.9952617390952" y="279.9977777777781" width="37.083333333333336" height="25.972222222222097" as="geometry"/>
                </mxCell>
                <mxCell id="160" value="" style="shape=stencil(fVXLcsIwDPyaXHdsyw/5TOl/MEMomVJggL7+vqKZUOQG3Zx4V5Z2ZbmjxXm7OvZdcOfL6fDafw7ry7ajpy6EYb/tT8NFVh0tO1psDqf+5XR436/H7+Pqiryu3g4f1whfI8/BuSspuO/xh0ei3x/PI3w37O/gsqvhN/4sPKC0cJ8ewyN8aZJhA54QWcHJzL2gBAVP4PAYXlF1MozMhjIBQYf3HiEbhAiumkDgaBAYvjkhI3pDfY/S6Mmo1SCkthskRDCKFk3ZawKZBHIoWRPEBUMlilOJN0JFMGogRtA1EIGMHo2ikj6BCrJFSK3TEoKNlGKFawhiXDEam5CTblWPbPRq4umi3Ah58n6WkKn1IYszhnG5TL15IxCqdds8qpZVQjjjhCKaaOOKAxs+sIfTKZUEMk5g2dY3rsglN5qPuVWJaZoK8zPDI5ImlKmqeUJE1TVIiGrUUMVpPfRqmfp3fmq4/yPetVNbFn8PxGbY7cb35X6/fVDk1/gY0fIH);fillColor=none;sketch=1;" vertex="1" parent="1">
                    <mxGeometry x="162.3385950724287" y="290.52777777777806" width="74.16666666666667" height="36.388888888888765" as="geometry"/>
                </mxCell>
                <mxCell id="161" value="" style="shape=stencil(rVnLbttADPwaXwntch/cc5r+R4A4jdE0Dpz09fela0itSGYEo7058k60ljic4eyOb14f7172uzy9vp2On/ffD/dvjzv+sMv58Py4Px3e9NOOb3d883A87T+djl+f7y9/v9ydV54/fTl+O/+HHxdcT1T4jMrTz8uV1EjK7ysfL4Cnw/N/BnQa7SqAkNSrAIN4ugaQJ5quAySa0JYmqmUNyJTS+4A2qBkAUwJPqQn1ugYUyugOnaStAZUyukObX9MCaMQZAqa+BnTiDgC647EG6K9CgEx1WgMGCdpSopZWAE6UGQAm6gaQKcv7gLpsYAEwMbhDFRrrWuJCHRBIAdO6NLhSHwDQKRmAXrkOIJRBeQcArd+rAEUfNGBcAEhzwceANu94AWAC1Uq8Lu+CCVQLFQPABKpMdc2HgglUMzVZAzCBapoLYQHIzMEYMJEYwKCEtrQ0xhmgVxLiQwSQ6wBpZkgIOO94TVF9bgPcQZ9JNgCeH3QM6PNrWgCFGBBI36vRB62uAjitlWP0Qes3IUCx+lCx7Gr1G31QSgn6DdnqgzaeBigaALDseoB2WwacDgAqxOgOyUqWKkYBFFWAkazG8z1jwFL9CwA3Ae2kvGZcw02Am5UsVe6OAMUqUMOcVoEygtIxp3myrVINUQUAlXHT+TqmqDoL08h6mTcZA6rtGl2vgPJWd2S6RlfSIgDbrtH7TNoY4ExixwRKzvMJtqHJeT7BNjQ5CyfYhqZqy1uwiia25S2FKgI4RyZ1vhICnL+SThOobueWRKggi2h9g2BL6VzAwFxwJmBsUMF6gIG1x1mAgd2hcwADm0MnzwN7Q78eq4JbnybMgn8HDGxW/RPCv8C/AfyE/BvGb8BX0IZXcBWKW6MzwgP3XmfNNyraDTwDj1SO8RsMS25mG9hy+h40sAAGXW5QAT476KO4CwWdGlv/5MZ5wb4iUBvsXLyeCfZGXjFVbQS0di/igv2dAgw1NxRTa9VwTTV5IG4OS56ObfM5T1jrR8fGnLOlT8cNO7BrmM8KMITbMFPeQXacYZwDCOONMKW9qe04h+Fuk56GZTnw2ThL4mHDpw2fHVh/zLhguMCMC8aXjWnED0iYceFEhWKVcGZDwU0wd2K1DSZbLJ/B7Iz1M5zOEePC+R9FdEHCsBFJ+AwD8yEMbhAfwmgIKVAYPiGjHcRb2MkHARqeFa7P9Jz5L3j+9+ltwQrk8+GCFShIoPFU2JzX2Ehvm/MajMMnH+wzzsP8WQPjiC44/sDVqvJhGJdxM+7OOmRcfN05gY0Dlu6cwMaZjzgnkLDXECfsCUcS4nQ64dlQnOwmrNPiVFTNdQVvWpyKYtUdTkSxzR1OQys8PBxOQnGLGU7ftKuhNMKtxw3Gr8d669djuR1ObnGkOpza4vY1nNhurHdau7HeKedGBDb58d80bP3w57T74fD0dDks//t7ezquly4n63z7Cw==);fillColor=none;sketch=1;" vertex="1" parent="1">
                    <mxGeometry x="191.5052617390952" y="296.5" width="11.666666666666668" height="29.6875" as="geometry"/>
                </mxCell>
                <mxCell id="163" style="edgeStyle=entityRelationEdgeStyle;html=1;exitX=1;exitY=0.5;exitDx=0;exitDy=0;entryX=0.004;entryY=0.939;entryDx=0;entryDy=0;entryPerimeter=0;" edge="1" parent="1" source="124" target="96">
                    <mxGeometry relative="1" as="geometry"/>
                </mxCell>
                <mxCell id="217" value="Productt_Id" style="text;html=1;align=center;verticalAlign=middle;resizable=0;points=[];autosize=1;strokeColor=none;fillColor=none;" vertex="1" parent="1">
                    <mxGeometry x="550" y="460" width="80" height="20" as="geometry"/>
                </mxCell>
            </root>
        </mxGraphModel>
    </diagram>
</mxfile>